<svg xmlns="http://www.w3.org/2000/svg" width="192.07503977521264" height="278.2666432816768" baseProfile="full" version="1.1"><defs><style type="text/css">polyline,line,rect,path,polygon,.polygon{fill:none;stroke:#000;stroke-width:1px;stroke-linejoin:round;}</style></defs><g fill_rule="evenodd" transform="scale(1,-1) translate(-38382.21620726991,950338.0942641932)"><g id="temesi_hq_8-13-2020" class="name"><polygon points="38540.99263,-950344.80804 38534.62651,-950345.60814 38531.87399,-950347.47547 38529.69981,-950350.20631 38528.10527,-950352.36235 38526.94299,-950356.82010 38527.51923,-950359.98494 38529.10946,-950362.57536 38531.42464,-950364.01579 38532.72635,-950365.45530 38534.02911,-950365.74414 38535.33370,-950364.01934 38537.36153,-950363.01436 38539.38923,-950362.15320 38540.98207,-950361.86699 38541.99592,-950361.43641 38543.29855,-950361.86909 38544.16566,-950363.59587 38544.45274,-950366.32894 38545.75341,-950368.91910 38547.63398,-950370.64680 38548.64495,-950373.38053 38549.22238,-950375.25087 38547.77249,-950377.55087 38545.74296,-950380.42567 38546.32025,-950382.43984 38547.18801,-950383.44746 38548.49012,-950384.45546 38548.34259,-950387.47580 38545.15326,-950392.07553 38542.54382,-950395.81280 38542.25178,-950398.54534 38539.06231,-950403.28890 38535.72572,-950410.62131 38533.25845,-950417.23535 38530.65084,-950418.95897 38528.62510,-950417.66264 38529.93531,-950409.75306 38532.11027,-950406.15923 38533.70729,-950401.27039 38535.30313,-950397.67604 38535.30653,-950393.93641 38533.86160,-950390.77079 38532.41498,-950389.47499 38530.53232,-950390.04861 38528.93569,-950394.50595 38526.90760,-950395.79860 38523.86722,-950395.79584 38521.54787,-950398.95804 38518.71556,-950402.15897 38514.39133,-950401.92893 38508.24691,-950401.01891 38504.83309,-950400.78970 38503.01022,-950403.04916 38501.64132,-950406.66570 38502.31981,-950411.41466 38504.59419,-950413.22562 38507.32438,-950414.35866 38511.65005,-950413.00591 38515.51866,-950413.68776 38517.79385,-950414.59427 38518.92960,-950417.08253 38520.06576,-950419.11857 38523.47999,-950418.89556 38526.21018,-950420.02859 38528.25675,-950422.06545 38526.88765,-950425.90811 38523.24294,-950429.29648 38520.74117,-950427.25920 38517.55660,-950425.22131 38512.32176,-950425.21656 38508.90670,-950426.34402 38502.99193,-950423.17308 38497.06791,-950430.17718 38492.28107,-950438.08675 38489.54305,-950445.54597 38487.94551,-950450.29289 38487.02646,-950459.78878 38487.01678,-950470.41607 38487.01060,-950477.19945 38485.40934,-950486.01642 38485.40089,-950495.28708 38482.38138,-950499.52913 38477.44504,-950497.71730 38472.24693,-950497.97078 38470.94981,-950495.38767 38472.26125,-950482.22103 38473.83212,-950469.57102 38475.92300,-950456.66330 38467.60640,-950456.65576 38455.64871,-950459.48502 38444.99259,-950459.99174 38429.40104,-950457.65386 38417.18576,-950457.90098 38404.70821,-950460.72979 38391.18940,-950465.36501 38384.68682,-950471.03938 38382.34188,-950477.49209 38383.63241,-950487.30461 38386.22408,-950495.31096 38392.97101,-950506.67760 38396.34164,-950515.45925 38403.34941,-950525.79336 38412.18304,-950528.89967 38418.93702,-950532.52050 38421.27231,-950536.65372 38419.20552,-950541.78842 38410.92770,-950546.34727 38409.08246,-950553.65179 38413.66526,-950568.72498 38418.24845,-950583.34153 38420.07708,-950594.30248 38429.26215,-950602.98692 38439.82989,-950607.56287 38454.53861,-950607.57619 38470.16287,-950611.70009 38480.27092,-950616.27562 38487.62775,-950613.54247 38495.44879,-950605.78674 38490.39643,-950601.67242 38484.42560,-950596.64401 38481.67437,-950589.33533 38482.14025,-950582.48620 38483.99086,-950569.24543 38483.99874,-950560.56935 38488.60308,-950551.89745 38496.41871,-950550.07800 38510.20931,-950548.72061 38523.08228,-950545.53585 38533.65742,-950541.89237 38540.09908,-950534.59205 38544.24211,-950527.74628 38543.33318,-950516.32956 38540.57863,-950512.67397 38537.36982,-950503.08170 38537.38019,-950491.66580 38537.85144,-950478.88041 38543.37505,-950470.20933 38543.38086,-950463.81642 38546.14412,-950457.88265 38548.45105,-950448.29536 38546.16691,-950432.76760 38546.17810,-950420.43836 38552.15640,-950417.24732 38559.97535,-950411.77477 38565.03892,-950403.55984 38572.86161,-950393.97751 38573.33039,-950383.93185 38574.25756,-950375.25651 38571.97303,-950360.18525 38571.06037,-950352.87814 38570.15021,-950342.83115 38567.39606,-950338.71886 38555.44564,-950338.25135 38548.54885,-950340.52831 38540.99263,-950344.80804" class="temesi_hq_8-13-2020"/></g></g></svg>
